<mxfile host="app.diagrams.net" agent="Mozilla/5.0 (Macintosh; Intel Mac OS X 10_15_7) AppleWebKit/605.1.15 (KHTML, like Gecko) Version/18.6 Safari/605.1.15" version="28.1.2" pages="5">
  <diagram name="Whatsapp/Chat Messanger" id="bitRg-004onHwH-d8z8o">
    <mxGraphModel dx="818" dy="607" grid="1" gridSize="10" guides="1" tooltips="1" connect="1" arrows="1" fold="1" page="1" pageScale="1" pageWidth="850" pageHeight="1100" math="0" shadow="0">
      <root>
        <mxCell id="0" />
        <mxCell id="1" parent="0" />
        <mxCell id="W15dqPmCkVGQ48eSo52e-1" value="" style="rounded=0;whiteSpace=wrap;html=1;fillColor=none;strokeWidth=2;strokeColor=#000000;" vertex="1" parent="1">
          <mxGeometry x="470" y="90" width="430" height="50" as="geometry" />
        </mxCell>
        <mxCell id="W15dqPmCkVGQ48eSo52e-2" value="&lt;font style=&quot;font-size: 16px;&quot; color=&quot;#000000&quot;&gt;&lt;b&gt;Whatsapp /Chat messenger Design&lt;/b&gt;&lt;/font&gt;" style="text;html=1;align=center;verticalAlign=middle;whiteSpace=wrap;rounded=0;strokeWidth=2;" vertex="1" parent="1">
          <mxGeometry x="550" y="100" width="270" height="30" as="geometry" />
        </mxCell>
        <mxCell id="W15dqPmCkVGQ48eSo52e-3" style="edgeStyle=orthogonalEdgeStyle;rounded=0;orthogonalLoop=1;jettySize=auto;html=1;exitX=1;exitY=0.25;exitDx=0;exitDy=0;labelBackgroundColor=none;strokeColor=#000000;fontSize=12;fontColor=#000000;entryX=0.75;entryY=0;entryDx=0;entryDy=0;" edge="1" parent="1" target="W15dqPmCkVGQ48eSo52e-65">
          <mxGeometry relative="1" as="geometry">
            <mxPoint x="304" y="453.75" as="sourcePoint" />
            <mxPoint x="550" y="540" as="targetPoint" />
          </mxGeometry>
        </mxCell>
        <mxCell id="W15dqPmCkVGQ48eSo52e-4" value="6. http Upgrade Request" style="edgeLabel;html=1;align=center;verticalAlign=middle;resizable=0;points=[];" vertex="1" connectable="0" parent="W15dqPmCkVGQ48eSo52e-3">
          <mxGeometry x="-0.2414" y="2" relative="1" as="geometry">
            <mxPoint x="24" as="offset" />
          </mxGeometry>
        </mxCell>
        <mxCell id="W15dqPmCkVGQ48eSo52e-5" value="" style="rounded=0;whiteSpace=wrap;html=1;strokeColor=#000000;strokeWidth=2;fontSize=16;fontColor=#000000;fillColor=none;" vertex="1" parent="1">
          <mxGeometry x="193" y="265" width="110" height="265" as="geometry" />
        </mxCell>
        <mxCell id="W15dqPmCkVGQ48eSo52e-6" value="&lt;font style=&quot;font-size: 12px;&quot;&gt;Local Sql&lt;br&gt;DB&lt;/font&gt;" style="shape=cylinder3;whiteSpace=wrap;html=1;boundedLbl=1;backgroundOutline=1;size=15;strokeColor=#000000;strokeWidth=2;fontSize=16;fontColor=#000000;fillColor=none;" vertex="1" parent="1">
          <mxGeometry x="75" y="307" width="60" height="80" as="geometry" />
        </mxCell>
        <mxCell id="W15dqPmCkVGQ48eSo52e-7" style="edgeStyle=orthogonalEdgeStyle;rounded=0;orthogonalLoop=1;jettySize=auto;html=1;exitX=0.855;exitY=0.145;exitDx=0;exitDy=0;exitPerimeter=0;entryX=0;entryY=0.5;entryDx=0;entryDy=0;labelBackgroundColor=none;strokeColor=#000000;fontSize=16;fontColor=#000000;" edge="1" parent="1" source="W15dqPmCkVGQ48eSo52e-10" target="W15dqPmCkVGQ48eSo52e-11">
          <mxGeometry relative="1" as="geometry" />
        </mxCell>
        <mxCell id="W15dqPmCkVGQ48eSo52e-8" style="edgeStyle=orthogonalEdgeStyle;rounded=0;orthogonalLoop=1;jettySize=auto;html=1;exitX=1;exitY=0.5;exitDx=0;exitDy=0;exitPerimeter=0;entryX=0;entryY=0.5;entryDx=0;entryDy=0;labelBackgroundColor=none;strokeColor=#000000;fontSize=16;fontColor=#000000;" edge="1" parent="1" source="W15dqPmCkVGQ48eSo52e-10" target="W15dqPmCkVGQ48eSo52e-12">
          <mxGeometry relative="1" as="geometry" />
        </mxCell>
        <mxCell id="W15dqPmCkVGQ48eSo52e-9" style="edgeStyle=orthogonalEdgeStyle;rounded=0;orthogonalLoop=1;jettySize=auto;html=1;exitX=0.855;exitY=0.855;exitDx=0;exitDy=0;exitPerimeter=0;entryX=0;entryY=0.5;entryDx=0;entryDy=0;labelBackgroundColor=none;strokeColor=#000000;fontSize=16;fontColor=#000000;" edge="1" parent="1" source="W15dqPmCkVGQ48eSo52e-10" target="W15dqPmCkVGQ48eSo52e-14">
          <mxGeometry relative="1" as="geometry" />
        </mxCell>
        <mxCell id="W15dqPmCkVGQ48eSo52e-70" value="2. Authentication" style="edgeLabel;html=1;align=center;verticalAlign=middle;resizable=0;points=[];" vertex="1" connectable="0" parent="W15dqPmCkVGQ48eSo52e-9">
          <mxGeometry x="-0.1865" y="-1" relative="1" as="geometry">
            <mxPoint as="offset" />
          </mxGeometry>
        </mxCell>
        <mxCell id="W15dqPmCkVGQ48eSo52e-10" value="Load Balancer" style="outlineConnect=0;dashed=0;verticalLabelPosition=bottom;verticalAlign=top;align=center;html=1;shape=mxgraph.aws3.classic_load_balancer;fillColor=#F58534;gradientColor=none;strokeColor=#000000;strokeWidth=2;fontSize=16;fontColor=#000000;" vertex="1" parent="1">
          <mxGeometry x="718" y="255" width="69" height="72" as="geometry" />
        </mxCell>
        <mxCell id="W15dqPmCkVGQ48eSo52e-11" value="User Profile" style="rounded=1;whiteSpace=wrap;html=1;strokeColor=#000000;strokeWidth=2;fontSize=16;fontColor=#000000;fillColor=none;" vertex="1" parent="1">
          <mxGeometry x="918" y="231" width="130" height="30" as="geometry" />
        </mxCell>
        <mxCell id="W15dqPmCkVGQ48eSo52e-12" value="Group Management" style="rounded=1;whiteSpace=wrap;html=1;strokeColor=#000000;strokeWidth=2;fontSize=16;fontColor=#000000;fillColor=none;" vertex="1" parent="1">
          <mxGeometry x="918" y="275" width="150" height="30" as="geometry" />
        </mxCell>
        <mxCell id="W15dqPmCkVGQ48eSo52e-13" value="&lt;font style=&quot;font-size: 11px;&quot;&gt;3.Authentication done&amp;nbsp;&lt;/font&gt;&lt;div&gt;&lt;font style=&quot;font-size: 11px;&quot;&gt;(200 + JWT token)&lt;/font&gt;&lt;/div&gt;" style="edgeStyle=orthogonalEdgeStyle;rounded=0;orthogonalLoop=1;jettySize=auto;html=1;exitX=0.5;exitY=1;exitDx=0;exitDy=0;entryX=0.5;entryY=0;entryDx=0;entryDy=0;strokeColor=#000000;fontSize=16;fontColor=#000000;labelBackgroundColor=none;" edge="1" parent="1" source="W15dqPmCkVGQ48eSo52e-14" target="W15dqPmCkVGQ48eSo52e-17">
          <mxGeometry relative="1" as="geometry" />
        </mxCell>
        <mxCell id="W15dqPmCkVGQ48eSo52e-14" value="Authentication Service" style="rounded=1;whiteSpace=wrap;html=1;strokeColor=#000000;strokeWidth=2;fontSize=16;fontColor=#000000;fillColor=none;" vertex="1" parent="1">
          <mxGeometry x="919" y="316" width="169" height="27" as="geometry" />
        </mxCell>
        <mxCell id="W15dqPmCkVGQ48eSo52e-17" value="Service Discovery" style="rounded=1;whiteSpace=wrap;html=1;strokeColor=#000000;strokeWidth=2;fontSize=16;fontColor=#000000;fillColor=none;" vertex="1" parent="1">
          <mxGeometry x="825" y="404" width="140" height="30" as="geometry" />
        </mxCell>
        <mxCell id="W15dqPmCkVGQ48eSo52e-18" style="edgeStyle=orthogonalEdgeStyle;rounded=0;orthogonalLoop=1;jettySize=auto;html=1;exitX=1;exitY=0.25;exitDx=0;exitDy=0;entryX=0;entryY=0.5;entryDx=0;entryDy=0;entryPerimeter=0;labelBackgroundColor=none;strokeColor=#000000;fontSize=12;fontColor=#000000;" edge="1" parent="1" source="W15dqPmCkVGQ48eSo52e-19" target="W15dqPmCkVGQ48eSo52e-10">
          <mxGeometry relative="1" as="geometry" />
        </mxCell>
        <mxCell id="W15dqPmCkVGQ48eSo52e-19" value="" style="rounded=0;whiteSpace=wrap;html=1;strokeColor=#000000;strokeWidth=2;fontSize=16;fontColor=#000000;fillColor=none;" vertex="1" parent="1">
          <mxGeometry x="518" y="281.5" width="60" height="198.5" as="geometry" />
        </mxCell>
        <mxCell id="W15dqPmCkVGQ48eSo52e-20" value="" style="verticalLabelPosition=bottom;html=1;verticalAlign=top;align=center;strokeColor=none;fillColor=#00BEF2;shape=mxgraph.azure.computer;pointerEvents=1;strokeWidth=2;fontSize=12;fontColor=#000000;" vertex="1" parent="1">
          <mxGeometry x="223" y="437" width="50" height="45" as="geometry" />
        </mxCell>
        <mxCell id="W15dqPmCkVGQ48eSo52e-21" value="" style="outlineConnect=0;dashed=0;verticalLabelPosition=bottom;verticalAlign=top;align=center;html=1;shape=mxgraph.aws3.mobile_client;fillColor=#000000;gradientColor=none;strokeColor=#000000;strokeWidth=2;fontSize=12;fontColor=#000000;" vertex="1" parent="1">
          <mxGeometry x="240" y="267" width="30" height="50" as="geometry" />
        </mxCell>
        <mxCell id="W15dqPmCkVGQ48eSo52e-22" value="User" style="shape=umlActor;verticalLabelPosition=bottom;verticalAlign=top;html=1;outlineConnect=0;strokeColor=#000000;strokeWidth=2;fontSize=12;fontColor=#000000;fillColor=#000000;" vertex="1" parent="1">
          <mxGeometry x="233" y="343" width="30" height="60" as="geometry" />
        </mxCell>
        <mxCell id="W15dqPmCkVGQ48eSo52e-23" style="edgeStyle=orthogonalEdgeStyle;rounded=0;orthogonalLoop=1;jettySize=auto;html=1;exitX=0.5;exitY=1;exitDx=0;exitDy=0;entryX=0.5;entryY=0;entryDx=0;entryDy=0;labelBackgroundColor=none;strokeColor=#000000;fontSize=12;fontColor=#000000;" edge="1" parent="1" source="W15dqPmCkVGQ48eSo52e-24" target="W15dqPmCkVGQ48eSo52e-19">
          <mxGeometry relative="1" as="geometry" />
        </mxCell>
        <mxCell id="W15dqPmCkVGQ48eSo52e-24" value="Traffic Filteration" style="ellipse;whiteSpace=wrap;html=1;strokeColor=#000000;strokeWidth=2;fontSize=12;fontColor=#000000;fillColor=none;" vertex="1" parent="1">
          <mxGeometry x="498" y="210" width="100" height="45" as="geometry" />
        </mxCell>
        <mxCell id="W15dqPmCkVGQ48eSo52e-25" value="API&amp;nbsp;&lt;div&gt;Gateway/&lt;/div&gt;&lt;div&gt;Proxy&lt;/div&gt;&lt;div&gt;Server&lt;/div&gt;" style="outlineConnect=0;dashed=0;verticalLabelPosition=bottom;verticalAlign=top;align=center;html=1;shape=mxgraph.aws3.api_gateway;fillColor=#D9A741;gradientColor=none;strokeColor=#000000;strokeWidth=2;fontSize=12;fontColor=#000000;" vertex="1" parent="1">
          <mxGeometry x="523" y="298" width="50" height="60" as="geometry" />
        </mxCell>
        <mxCell id="W15dqPmCkVGQ48eSo52e-26" value="To store local messages especially in offline mode" style="text;html=1;strokeColor=none;fillColor=none;align=center;verticalAlign=middle;whiteSpace=wrap;rounded=0;strokeWidth=2;fontSize=12;fontColor=#000000;" vertex="1" parent="1">
          <mxGeometry x="45" y="397" width="120" height="30" as="geometry" />
        </mxCell>
        <mxCell id="W15dqPmCkVGQ48eSo52e-27" value="" style="rounded=0;whiteSpace=wrap;html=1;strokeColor=#000000;strokeWidth=2;fontSize=12;fontColor=#000000;fillColor=none;" vertex="1" parent="1">
          <mxGeometry x="890.5" y="477" width="225" height="60" as="geometry" />
        </mxCell>
        <mxCell id="W15dqPmCkVGQ48eSo52e-28" value="&lt;span style=&quot;background-color: rgb(255, 255, 255);&quot;&gt;Server 1&lt;/span&gt;" style="image;html=1;image=img/lib/clip_art/computers/Server_Tower_128x128.png;strokeColor=#000000;strokeWidth=2;fontSize=12;fontColor=#000000;fillColor=#FFFFFF;" vertex="1" parent="1">
          <mxGeometry x="892.5" y="486" width="60" height="50" as="geometry" />
        </mxCell>
        <mxCell id="W15dqPmCkVGQ48eSo52e-29" style="edgeStyle=orthogonalEdgeStyle;rounded=0;orthogonalLoop=1;jettySize=auto;html=1;exitX=0.5;exitY=1;exitDx=0;exitDy=0;entryX=0.5;entryY=0;entryDx=0;entryDy=0;entryPerimeter=0;labelBackgroundColor=none;strokeColor=#000000;fontSize=12;fontColor=#000000;" edge="1" parent="1" source="W15dqPmCkVGQ48eSo52e-65" target="W15dqPmCkVGQ48eSo52e-35">
          <mxGeometry relative="1" as="geometry" />
        </mxCell>
        <mxCell id="W15dqPmCkVGQ48eSo52e-75" value="8. Message sent" style="edgeLabel;html=1;align=center;verticalAlign=middle;resizable=0;points=[];" vertex="1" connectable="0" parent="W15dqPmCkVGQ48eSo52e-29">
          <mxGeometry x="-0.2932" y="2" relative="1" as="geometry">
            <mxPoint as="offset" />
          </mxGeometry>
        </mxCell>
        <mxCell id="W15dqPmCkVGQ48eSo52e-30" value="&lt;span style=&quot;background-color: rgb(255, 255, 255);&quot;&gt;Server 2&lt;/span&gt;" style="image;html=1;image=img/lib/clip_art/computers/Server_Tower_128x128.png;strokeColor=#000000;strokeWidth=2;fontSize=12;fontColor=#000000;fillColor=#FFFFFF;" vertex="1" parent="1">
          <mxGeometry x="946.5" y="486" width="60" height="50" as="geometry" />
        </mxCell>
        <mxCell id="W15dqPmCkVGQ48eSo52e-33" value="&lt;span style=&quot;background-color: rgb(255, 255, 255);&quot;&gt;Server n&lt;/span&gt;" style="image;html=1;image=img/lib/clip_art/computers/Server_Tower_128x128.png;strokeColor=#000000;strokeWidth=2;fontSize=12;fontColor=#000000;fillColor=#FFFFFF;" vertex="1" parent="1">
          <mxGeometry x="1042.5" y="486" width="60" height="50" as="geometry" />
        </mxCell>
        <mxCell id="W15dqPmCkVGQ48eSo52e-35" value="Key Store&lt;br&gt;DB" style="shape=cylinder3;whiteSpace=wrap;html=1;boundedLbl=1;backgroundOutline=1;size=15;labelBackgroundColor=#FFFFFF;strokeColor=#000000;strokeWidth=2;fontSize=12;fontColor=#000000;fillColor=#FFFFFF;" vertex="1" parent="1">
          <mxGeometry x="510" y="733" width="60" height="80" as="geometry" />
        </mxCell>
        <mxCell id="W15dqPmCkVGQ48eSo52e-36" style="edgeStyle=orthogonalEdgeStyle;rounded=0;orthogonalLoop=1;jettySize=auto;html=1;exitX=1;exitY=0.51;exitDx=0;exitDy=0;exitPerimeter=0;entryX=0;entryY=0.5;entryDx=0;entryDy=0;labelBackgroundColor=none;strokeColor=#000000;fontSize=12;fontColor=#000000;endArrow=classic;endFill=1;" edge="1" parent="1" source="W15dqPmCkVGQ48eSo52e-37" target="W15dqPmCkVGQ48eSo52e-41">
          <mxGeometry relative="1" as="geometry" />
        </mxCell>
        <mxCell id="W15dqPmCkVGQ48eSo52e-37" value="" style="verticalLabelPosition=bottom;html=1;verticalAlign=top;align=center;strokeColor=none;fillColor=#00BEF2;shape=mxgraph.azure.queue_generic;pointerEvents=1;labelBackgroundColor=#FFFFFF;strokeWidth=2;fontSize=12;fontColor=#000000;" vertex="1" parent="1">
          <mxGeometry x="643" y="693" width="87" height="30" as="geometry" />
        </mxCell>
        <mxCell id="W15dqPmCkVGQ48eSo52e-38" value="No" style="edgeStyle=orthogonalEdgeStyle;rounded=0;orthogonalLoop=1;jettySize=auto;html=1;exitX=0.5;exitY=1;exitDx=0;exitDy=0;labelBackgroundColor=none;strokeColor=#000000;fontSize=12;fontColor=#000000;endArrow=classic;endFill=1;" edge="1" parent="1" source="W15dqPmCkVGQ48eSo52e-41" target="W15dqPmCkVGQ48eSo52e-42">
          <mxGeometry relative="1" as="geometry" />
        </mxCell>
        <mxCell id="W15dqPmCkVGQ48eSo52e-39" style="edgeStyle=orthogonalEdgeStyle;rounded=0;orthogonalLoop=1;jettySize=auto;html=1;exitX=1;exitY=0.5;exitDx=0;exitDy=0;entryX=1;entryY=0.75;entryDx=0;entryDy=0;labelBackgroundColor=none;strokeColor=#000000;fontSize=12;fontColor=#000000;endArrow=classic;endFill=1;" edge="1" parent="1" source="W15dqPmCkVGQ48eSo52e-41" target="W15dqPmCkVGQ48eSo52e-66">
          <mxGeometry relative="1" as="geometry" />
        </mxCell>
        <mxCell id="W15dqPmCkVGQ48eSo52e-40" value="Yes" style="edgeLabel;html=1;align=center;verticalAlign=middle;resizable=0;points=[];" vertex="1" connectable="0" parent="W15dqPmCkVGQ48eSo52e-39">
          <mxGeometry x="-0.4644" y="1" relative="1" as="geometry">
            <mxPoint as="offset" />
          </mxGeometry>
        </mxCell>
        <mxCell id="W15dqPmCkVGQ48eSo52e-41" value="User&lt;br&gt;online" style="rhombus;whiteSpace=wrap;html=1;labelBackgroundColor=#FFFFFF;strokeColor=#000000;strokeWidth=2;fontSize=12;fontColor=#000000;fillColor=#FFFFFF;" vertex="1" parent="1">
          <mxGeometry x="783" y="675" width="70" height="65" as="geometry" />
        </mxCell>
        <mxCell id="W15dqPmCkVGQ48eSo52e-42" value="Push Notification&lt;div&gt;Server&lt;/div&gt;" style="sketch=0;aspect=fixed;html=1;points=[];align=center;image;fontSize=12;image=img/lib/mscae/Service_Bus_Relay.svg;labelBackgroundColor=#FFFFFF;strokeColor=#000000;strokeWidth=2;fontColor=#000000;fillColor=#FFFFFF;" vertex="1" parent="1">
          <mxGeometry x="793" y="770" width="50" height="50" as="geometry" />
        </mxCell>
        <mxCell id="W15dqPmCkVGQ48eSo52e-43" value="" style="rounded=0;whiteSpace=wrap;html=1;strokeColor=#000000;strokeWidth=2;fontSize=16;fontColor=#000000;fillColor=none;" vertex="1" parent="1">
          <mxGeometry x="972" y="560" width="110" height="120" as="geometry" />
        </mxCell>
        <mxCell id="W15dqPmCkVGQ48eSo52e-44" value="" style="verticalLabelPosition=bottom;html=1;verticalAlign=top;align=center;strokeColor=none;fillColor=#00BEF2;shape=mxgraph.azure.computer;pointerEvents=1;strokeWidth=2;fontSize=12;fontColor=#000000;" vertex="1" parent="1">
          <mxGeometry x="1022" y="624" width="50" height="45" as="geometry" />
        </mxCell>
        <mxCell id="W15dqPmCkVGQ48eSo52e-45" value="" style="outlineConnect=0;dashed=0;verticalLabelPosition=bottom;verticalAlign=top;align=center;html=1;shape=mxgraph.aws3.mobile_client;fillColor=#000000;gradientColor=none;strokeColor=#000000;strokeWidth=2;fontSize=12;fontColor=#000000;" vertex="1" parent="1">
          <mxGeometry x="1036" y="566" width="30" height="50" as="geometry" />
        </mxCell>
        <mxCell id="W15dqPmCkVGQ48eSo52e-46" value="User 2" style="shape=umlActor;verticalLabelPosition=bottom;verticalAlign=top;html=1;outlineConnect=0;strokeColor=#000000;strokeWidth=2;fontSize=12;fontColor=#000000;fillColor=#000000;" vertex="1" parent="1">
          <mxGeometry x="982" y="580" width="30" height="60" as="geometry" />
        </mxCell>
        <mxCell id="W15dqPmCkVGQ48eSo52e-47" value="" style="endArrow=classic;html=1;rounded=0;entryX=0;entryY=0.5;entryDx=0;entryDy=0;entryPerimeter=0;" edge="1" parent="1" target="W15dqPmCkVGQ48eSo52e-37">
          <mxGeometry width="50" height="50" relative="1" as="geometry">
            <mxPoint x="540" y="708" as="sourcePoint" />
            <mxPoint x="585.0000000000002" y="708" as="targetPoint" />
          </mxGeometry>
        </mxCell>
        <mxCell id="W15dqPmCkVGQ48eSo52e-48" style="edgeStyle=orthogonalEdgeStyle;rounded=0;orthogonalLoop=1;jettySize=auto;html=1;exitX=0;exitY=0.5;exitDx=0;exitDy=0;entryX=0.5;entryY=0;entryDx=0;entryDy=0;labelBackgroundColor=none;strokeColor=#000000;fontSize=16;fontColor=#000000;" edge="1" parent="1" source="W15dqPmCkVGQ48eSo52e-65" target="W15dqPmCkVGQ48eSo52e-50">
          <mxGeometry relative="1" as="geometry">
            <mxPoint x="820" y="342" as="sourcePoint" />
          </mxGeometry>
        </mxCell>
        <mxCell id="W15dqPmCkVGQ48eSo52e-49" value="Logout" style="edgeLabel;html=1;align=center;verticalAlign=middle;resizable=0;points=[];" vertex="1" connectable="0" parent="W15dqPmCkVGQ48eSo52e-48">
          <mxGeometry x="0.3119" relative="1" as="geometry">
            <mxPoint x="1" as="offset" />
          </mxGeometry>
        </mxCell>
        <mxCell id="W15dqPmCkVGQ48eSo52e-50" value="Presence Server" style="rounded=1;whiteSpace=wrap;html=1;strokeColor=#000000;strokeWidth=2;fontSize=16;fontColor=#000000;fillColor=none;" vertex="1" parent="1">
          <mxGeometry x="273" y="675" width="150" height="30" as="geometry" />
        </mxCell>
        <mxCell id="W15dqPmCkVGQ48eSo52e-51" value="KV Store" style="shape=cylinder3;whiteSpace=wrap;html=1;boundedLbl=1;backgroundOutline=1;size=15;" vertex="1" parent="1">
          <mxGeometry x="322" y="752" width="52" height="70" as="geometry" />
        </mxCell>
        <mxCell id="W15dqPmCkVGQ48eSo52e-52" style="edgeStyle=orthogonalEdgeStyle;rounded=0;orthogonalLoop=1;jettySize=auto;html=1;exitX=0.5;exitY=1;exitDx=0;exitDy=0;" edge="1" parent="1" source="W15dqPmCkVGQ48eSo52e-17" target="W15dqPmCkVGQ48eSo52e-27">
          <mxGeometry relative="1" as="geometry">
            <mxPoint x="1000" y="490" as="sourcePoint" />
          </mxGeometry>
        </mxCell>
        <mxCell id="W15dqPmCkVGQ48eSo52e-73" value="4. Select server" style="edgeLabel;html=1;align=center;verticalAlign=middle;resizable=0;points=[];" vertex="1" connectable="0" parent="W15dqPmCkVGQ48eSo52e-52">
          <mxGeometry x="0.3576" y="-1" relative="1" as="geometry">
            <mxPoint x="1" y="1" as="offset" />
          </mxGeometry>
        </mxCell>
        <mxCell id="W15dqPmCkVGQ48eSo52e-55" value="" style="endArrow=classic;startArrow=classic;html=1;rounded=0;exitX=1;exitY=0.5;exitDx=0;exitDy=0;exitPerimeter=0;" edge="1" parent="1" source="W15dqPmCkVGQ48eSo52e-6">
          <mxGeometry width="50" height="50" relative="1" as="geometry">
            <mxPoint x="320" y="458" as="sourcePoint" />
            <mxPoint x="190" y="348" as="targetPoint" />
          </mxGeometry>
        </mxCell>
        <mxCell id="W15dqPmCkVGQ48eSo52e-56" value="" style="endArrow=classic;startArrow=classic;html=1;rounded=0;exitX=0.974;exitY=0.789;exitDx=0;exitDy=0;exitPerimeter=0;entryX=0.25;entryY=0;entryDx=0;entryDy=0;" edge="1" parent="1" source="W15dqPmCkVGQ48eSo52e-5" target="W15dqPmCkVGQ48eSo52e-65">
          <mxGeometry width="50" height="50" relative="1" as="geometry">
            <mxPoint x="303" y="483" as="sourcePoint" />
            <mxPoint x="530" y="540" as="targetPoint" />
            <Array as="points">
              <mxPoint x="525" y="470" />
            </Array>
          </mxGeometry>
        </mxCell>
        <mxCell id="W15dqPmCkVGQ48eSo52e-57" value="7. Websocket connection&lt;div&gt;after 101 upgrade&lt;/div&gt;" style="edgeLabel;html=1;align=center;verticalAlign=middle;resizable=0;points=[];" vertex="1" connectable="0" parent="W15dqPmCkVGQ48eSo52e-56">
          <mxGeometry x="-0.0926" y="1" relative="1" as="geometry">
            <mxPoint y="10" as="offset" />
          </mxGeometry>
        </mxCell>
        <mxCell id="W15dqPmCkVGQ48eSo52e-58" style="edgeStyle=orthogonalEdgeStyle;rounded=0;orthogonalLoop=1;jettySize=auto;html=1;exitX=1;exitY=0.25;exitDx=0;exitDy=0;entryX=-0.033;entryY=0.203;entryDx=0;entryDy=0;entryPerimeter=0;" edge="1" parent="1">
          <mxGeometry relative="1" as="geometry">
            <mxPoint x="304" y="315.75" as="sourcePoint" />
            <mxPoint x="517.02" y="316.01" as="targetPoint" />
          </mxGeometry>
        </mxCell>
        <mxCell id="W15dqPmCkVGQ48eSo52e-59" value="1. http for authentication&lt;div&gt;(with keep:alive)&lt;/div&gt;" style="edgeLabel;html=1;align=center;verticalAlign=middle;resizable=0;points=[];" vertex="1" connectable="0" parent="W15dqPmCkVGQ48eSo52e-58">
          <mxGeometry x="-0.062" relative="1" as="geometry">
            <mxPoint as="offset" />
          </mxGeometry>
        </mxCell>
        <mxCell id="W15dqPmCkVGQ48eSo52e-60" value="" style="endArrow=none;dashed=1;html=1;dashPattern=1 3;strokeWidth=2;rounded=0;entryX=0.5;entryY=1;entryDx=0;entryDy=0;exitX=1;exitY=0.594;exitDx=0;exitDy=0;exitPerimeter=0;" edge="1" parent="1" source="W15dqPmCkVGQ48eSo52e-42" target="W15dqPmCkVGQ48eSo52e-43">
          <mxGeometry width="50" height="50" relative="1" as="geometry">
            <mxPoint x="620" y="560" as="sourcePoint" />
            <mxPoint x="670" y="510" as="targetPoint" />
            <Array as="points">
              <mxPoint x="1027" y="800" />
            </Array>
          </mxGeometry>
        </mxCell>
        <mxCell id="W15dqPmCkVGQ48eSo52e-61" value="Send push when user comes online" style="edgeLabel;html=1;align=center;verticalAlign=middle;resizable=0;points=[];" vertex="1" connectable="0" parent="W15dqPmCkVGQ48eSo52e-60">
          <mxGeometry x="-0.1353" relative="1" as="geometry">
            <mxPoint as="offset" />
          </mxGeometry>
        </mxCell>
        <mxCell id="W15dqPmCkVGQ48eSo52e-62" style="edgeStyle=orthogonalEdgeStyle;rounded=0;orthogonalLoop=1;jettySize=auto;html=1;exitX=0.5;exitY=1;exitDx=0;exitDy=0;entryX=0.5;entryY=0;entryDx=0;entryDy=0;entryPerimeter=0;" edge="1" parent="1" source="W15dqPmCkVGQ48eSo52e-50" target="W15dqPmCkVGQ48eSo52e-51">
          <mxGeometry relative="1" as="geometry" />
        </mxCell>
        <mxCell id="W15dqPmCkVGQ48eSo52e-65" value="&lt;span style=&quot;background-color: rgb(255, 255, 255);&quot;&gt;Server 2&lt;/span&gt;" style="image;html=1;image=img/lib/clip_art/computers/Server_Tower_128x128.png;strokeColor=#000000;strokeWidth=2;fontSize=12;fontColor=#000000;fillColor=#FFFFFF;" vertex="1" parent="1">
          <mxGeometry x="510" y="550" width="60" height="50" as="geometry" />
        </mxCell>
        <mxCell id="W15dqPmCkVGQ48eSo52e-66" value="&lt;span style=&quot;background-color: rgb(255, 255, 255);&quot;&gt;Server 4&lt;/span&gt;" style="image;html=1;image=img/lib/clip_art/computers/Server_Tower_128x128.png;strokeColor=#000000;strokeWidth=2;fontSize=12;fontColor=#000000;fillColor=#FFFFFF;" vertex="1" parent="1">
          <mxGeometry x="750" y="577" width="60" height="50" as="geometry" />
        </mxCell>
        <mxCell id="W15dqPmCkVGQ48eSo52e-68" value="" style="endArrow=classic;startArrow=classic;html=1;rounded=0;entryX=1;entryY=0.25;entryDx=0;entryDy=0;exitX=0;exitY=0.25;exitDx=0;exitDy=0;" edge="1" parent="1" source="W15dqPmCkVGQ48eSo52e-43" target="W15dqPmCkVGQ48eSo52e-66">
          <mxGeometry width="50" height="50" relative="1" as="geometry">
            <mxPoint x="660" y="630" as="sourcePoint" />
            <mxPoint x="710" y="580" as="targetPoint" />
          </mxGeometry>
        </mxCell>
        <mxCell id="W15dqPmCkVGQ48eSo52e-69" value="Websocket connection" style="edgeLabel;html=1;align=center;verticalAlign=middle;resizable=0;points=[];" vertex="1" connectable="0" parent="W15dqPmCkVGQ48eSo52e-68">
          <mxGeometry x="-0.0125" y="3" relative="1" as="geometry">
            <mxPoint as="offset" />
          </mxGeometry>
        </mxCell>
        <mxCell id="W15dqPmCkVGQ48eSo52e-71" style="edgeStyle=orthogonalEdgeStyle;rounded=0;orthogonalLoop=1;jettySize=auto;html=1;exitX=0;exitY=0.5;exitDx=0;exitDy=0;entryX=0.973;entryY=0.645;entryDx=0;entryDy=0;entryPerimeter=0;" edge="1" parent="1" source="W15dqPmCkVGQ48eSo52e-17" target="W15dqPmCkVGQ48eSo52e-5">
          <mxGeometry relative="1" as="geometry" />
        </mxCell>
        <mxCell id="W15dqPmCkVGQ48eSo52e-72" value="5. 200 + JWT token +&amp;nbsp;&lt;div&gt;server address to connect&lt;/div&gt;" style="edgeLabel;html=1;align=center;verticalAlign=middle;resizable=0;points=[];" vertex="1" connectable="0" parent="W15dqPmCkVGQ48eSo52e-71">
          <mxGeometry x="-0.4487" y="-1" relative="1" as="geometry">
            <mxPoint x="1" as="offset" />
          </mxGeometry>
        </mxCell>
      </root>
    </mxGraphModel>
  </diagram>
  <diagram name="Instagram" id="jfXJKyPWg138WQXWpLFF">
    <mxGraphModel dx="986" dy="738" grid="1" gridSize="10" guides="1" tooltips="1" connect="1" arrows="1" fold="1" page="1" pageScale="1" pageWidth="1169" pageHeight="827" math="0" shadow="0">
      <root>
        <mxCell id="JEjzlFw6t6a2NhCm18pd-0" />
        <mxCell id="JEjzlFw6t6a2NhCm18pd-1" parent="JEjzlFw6t6a2NhCm18pd-0" />
        <mxCell id="JEjzlFw6t6a2NhCm18pd-3" value="&lt;font style=&quot;font-size: 18px;&quot;&gt;Instagram&lt;/font&gt;" style="rounded=0;whiteSpace=wrap;html=1;fillColor=none;strokeWidth=2;strokeColor=#000000;" parent="JEjzlFw6t6a2NhCm18pd-1" vertex="1">
          <mxGeometry x="390" y="10" width="430" height="50" as="geometry" />
        </mxCell>
        <mxCell id="U08PJLU9lS9YtC-txUqM-0" style="edgeStyle=orthogonalEdgeStyle;rounded=0;orthogonalLoop=1;jettySize=auto;html=1;exitX=1;exitY=0.25;exitDx=0;exitDy=0;entryX=0.005;entryY=0.2;entryDx=0;entryDy=0;entryPerimeter=0;labelBackgroundColor=none;strokeColor=#000000;fontSize=12;fontColor=#000000;" parent="JEjzlFw6t6a2NhCm18pd-1" source="U08PJLU9lS9YtC-txUqM-1" target="U08PJLU9lS9YtC-txUqM-4" edge="1">
          <mxGeometry relative="1" as="geometry" />
        </mxCell>
        <mxCell id="-_NhU1SxsBvOPbosuFTN-1" value="http" style="edgeLabel;html=1;align=center;verticalAlign=middle;resizable=0;points=[];" parent="U08PJLU9lS9YtC-txUqM-0" vertex="1" connectable="0">
          <mxGeometry x="-0.2925" y="-2" relative="1" as="geometry">
            <mxPoint as="offset" />
          </mxGeometry>
        </mxCell>
        <mxCell id="U08PJLU9lS9YtC-txUqM-1" value="" style="rounded=0;whiteSpace=wrap;html=1;strokeColor=#000000;strokeWidth=2;fontSize=16;fontColor=#000000;fillColor=none;" parent="JEjzlFw6t6a2NhCm18pd-1" vertex="1">
          <mxGeometry x="150" y="200" width="110" height="120" as="geometry" />
        </mxCell>
        <mxCell id="U08PJLU9lS9YtC-txUqM-2" style="edgeStyle=orthogonalEdgeStyle;rounded=0;orthogonalLoop=1;jettySize=auto;html=1;entryX=0;entryY=0.5;entryDx=0;entryDy=0;fontSize=16;fontColor=#000000;strokeColor=#000000;" parent="JEjzlFw6t6a2NhCm18pd-1" source="U08PJLU9lS9YtC-txUqM-3" target="U08PJLU9lS9YtC-txUqM-1" edge="1">
          <mxGeometry relative="1" as="geometry" />
        </mxCell>
        <mxCell id="U08PJLU9lS9YtC-txUqM-3" value="&lt;font style=&quot;font-size: 12px;&quot;&gt;Local Sql&lt;br&gt;DB&lt;/font&gt;" style="shape=cylinder3;whiteSpace=wrap;html=1;boundedLbl=1;backgroundOutline=1;size=15;strokeColor=#000000;strokeWidth=2;fontSize=16;fontColor=#000000;fillColor=none;" parent="JEjzlFw6t6a2NhCm18pd-1" vertex="1">
          <mxGeometry x="20" y="220" width="60" height="80" as="geometry" />
        </mxCell>
        <mxCell id="U08PJLU9lS9YtC-txUqM-4" value="" style="rounded=0;whiteSpace=wrap;html=1;strokeColor=#000000;strokeWidth=2;fontSize=16;fontColor=#000000;fillColor=none;" parent="JEjzlFw6t6a2NhCm18pd-1" vertex="1">
          <mxGeometry x="390" y="146.5" width="60" height="223.5" as="geometry" />
        </mxCell>
        <mxCell id="U08PJLU9lS9YtC-txUqM-5" value="" style="verticalLabelPosition=bottom;html=1;verticalAlign=top;align=center;strokeColor=none;fillColor=#00BEF2;shape=mxgraph.azure.computer;pointerEvents=1;strokeWidth=2;fontSize=12;fontColor=#000000;" parent="JEjzlFw6t6a2NhCm18pd-1" vertex="1">
          <mxGeometry x="200" y="264" width="50" height="45" as="geometry" />
        </mxCell>
        <mxCell id="U08PJLU9lS9YtC-txUqM-6" value="" style="outlineConnect=0;dashed=0;verticalLabelPosition=bottom;verticalAlign=top;align=center;html=1;shape=mxgraph.aws3.mobile_client;fillColor=#000000;gradientColor=none;strokeColor=#000000;strokeWidth=2;fontSize=12;fontColor=#000000;" parent="JEjzlFw6t6a2NhCm18pd-1" vertex="1">
          <mxGeometry x="214" y="206" width="30" height="50" as="geometry" />
        </mxCell>
        <mxCell id="U08PJLU9lS9YtC-txUqM-7" value="User" style="shape=umlActor;verticalLabelPosition=bottom;verticalAlign=top;html=1;outlineConnect=0;strokeColor=#000000;strokeWidth=2;fontSize=12;fontColor=#000000;fillColor=#000000;" parent="JEjzlFw6t6a2NhCm18pd-1" vertex="1">
          <mxGeometry x="160" y="220" width="30" height="60" as="geometry" />
        </mxCell>
        <mxCell id="9LV3-pJDLrUQUIXu5JAp-0" style="edgeStyle=orthogonalEdgeStyle;rounded=0;orthogonalLoop=1;jettySize=auto;html=1;exitX=0.5;exitY=1;exitDx=0;exitDy=0;entryX=0.5;entryY=0;entryDx=0;entryDy=0;" parent="JEjzlFw6t6a2NhCm18pd-1" source="U08PJLU9lS9YtC-txUqM-8" target="U08PJLU9lS9YtC-txUqM-4" edge="1">
          <mxGeometry relative="1" as="geometry" />
        </mxCell>
        <mxCell id="U08PJLU9lS9YtC-txUqM-8" value="Traffic Filteration" style="ellipse;whiteSpace=wrap;html=1;strokeColor=#000000;strokeWidth=2;fontSize=12;fontColor=#000000;fillColor=none;" parent="JEjzlFw6t6a2NhCm18pd-1" vertex="1">
          <mxGeometry x="370" y="75" width="100" height="45" as="geometry" />
        </mxCell>
        <mxCell id="U08PJLU9lS9YtC-txUqM-9" value="" style="outlineConnect=0;dashed=0;verticalLabelPosition=bottom;verticalAlign=top;align=center;html=1;shape=mxgraph.aws3.api_gateway;fillColor=#D9A741;gradientColor=none;strokeColor=#000000;strokeWidth=2;fontSize=12;fontColor=#000000;" parent="JEjzlFw6t6a2NhCm18pd-1" vertex="1">
          <mxGeometry x="395" y="150" width="50" height="60" as="geometry" />
        </mxCell>
        <mxCell id="U08PJLU9lS9YtC-txUqM-10" value="Web&lt;br&gt;Socket" style="rounded=0;whiteSpace=wrap;html=1;strokeColor=#000000;strokeWidth=2;fontSize=12;fontColor=#000000;fillColor=#FFFFFF;" parent="JEjzlFw6t6a2NhCm18pd-1" vertex="1">
          <mxGeometry x="395" y="220" width="50" height="90" as="geometry" />
        </mxCell>
        <mxCell id="U08PJLU9lS9YtC-txUqM-11" value="" style="endArrow=classic;startArrow=classic;html=1;rounded=0;labelBackgroundColor=none;strokeColor=#000000;fontSize=12;fontColor=#000000;exitX=1;exitY=0.75;exitDx=0;exitDy=0;entryX=0;entryY=0.5;entryDx=0;entryDy=0;" parent="JEjzlFw6t6a2NhCm18pd-1" source="U08PJLU9lS9YtC-txUqM-1" target="U08PJLU9lS9YtC-txUqM-10" edge="1">
          <mxGeometry width="50" height="50" relative="1" as="geometry">
            <mxPoint x="530" y="250" as="sourcePoint" />
            <mxPoint x="580" y="200" as="targetPoint" />
            <Array as="points">
              <mxPoint x="320" y="290" />
            </Array>
          </mxGeometry>
        </mxCell>
        <mxCell id="3cc7mTL13khyCDW1kv4i-0" value="XMPP/TCP" style="edgeLabel;html=1;align=center;verticalAlign=middle;resizable=0;points=[];" parent="U08PJLU9lS9YtC-txUqM-11" vertex="1" connectable="0">
          <mxGeometry x="0.0596" y="-3" relative="1" as="geometry">
            <mxPoint as="offset" />
          </mxGeometry>
        </mxCell>
        <mxCell id="U08PJLU9lS9YtC-txUqM-12" value="To store local messages especially in offline mode" style="text;html=1;strokeColor=none;fillColor=none;align=center;verticalAlign=middle;whiteSpace=wrap;rounded=0;strokeWidth=2;fontSize=12;fontColor=#000000;" parent="JEjzlFw6t6a2NhCm18pd-1" vertex="1">
          <mxGeometry x="2" y="309" width="120" height="30" as="geometry" />
        </mxCell>
        <mxCell id="q34Sy39tsFJGS8U8P3e1-2" style="edgeStyle=orthogonalEdgeStyle;rounded=0;orthogonalLoop=1;jettySize=auto;html=1;exitX=0.855;exitY=0.145;exitDx=0;exitDy=0;exitPerimeter=0;entryX=0;entryY=0.25;entryDx=0;entryDy=0;" parent="JEjzlFw6t6a2NhCm18pd-1" source="OGfwswc6QAu7BwN8Sq5O-0" target="Ptdj-PpZZd7gTvsX4c2O-2" edge="1">
          <mxGeometry relative="1" as="geometry" />
        </mxCell>
        <mxCell id="OGfwswc6QAu7BwN8Sq5O-0" value="" style="outlineConnect=0;dashed=0;verticalLabelPosition=bottom;verticalAlign=top;align=center;html=1;shape=mxgraph.aws3.classic_load_balancer;fillColor=#F58534;gradientColor=none;strokeColor=#000000;strokeWidth=2;fontSize=16;fontColor=#000000;" parent="JEjzlFw6t6a2NhCm18pd-1" vertex="1">
          <mxGeometry x="590" y="120" width="69" height="72" as="geometry" />
        </mxCell>
        <mxCell id="OGfwswc6QAu7BwN8Sq5O-1" style="edgeStyle=orthogonalEdgeStyle;rounded=0;orthogonalLoop=1;jettySize=auto;html=1;exitX=1;exitY=0.25;exitDx=0;exitDy=0;entryX=0;entryY=0.5;entryDx=0;entryDy=0;entryPerimeter=0;labelBackgroundColor=none;strokeColor=#000000;fontSize=12;fontColor=#000000;" parent="JEjzlFw6t6a2NhCm18pd-1" target="OGfwswc6QAu7BwN8Sq5O-0" edge="1">
          <mxGeometry relative="1" as="geometry">
            <mxPoint x="450" y="189" as="sourcePoint" />
          </mxGeometry>
        </mxCell>
        <mxCell id="nmRgIuXKoeiEjBjeD90D-0" style="edgeStyle=orthogonalEdgeStyle;rounded=0;orthogonalLoop=1;jettySize=auto;html=1;exitX=0.855;exitY=0.855;exitDx=0;exitDy=0;exitPerimeter=0;entryX=0;entryY=0.5;entryDx=0;entryDy=0;labelBackgroundColor=none;strokeColor=#000000;fontSize=16;fontColor=#000000;" parent="JEjzlFw6t6a2NhCm18pd-1" target="nmRgIuXKoeiEjBjeD90D-2" edge="1">
          <mxGeometry relative="1" as="geometry">
            <mxPoint x="649" y="182" as="sourcePoint" />
          </mxGeometry>
        </mxCell>
        <mxCell id="nmRgIuXKoeiEjBjeD90D-1" value="&lt;p style=&quot;line-height: 120%; padding: 0px 0px 14px; margin-top: 16px;&quot;&gt;Authentication done&lt;/p&gt;" style="edgeStyle=orthogonalEdgeStyle;rounded=0;orthogonalLoop=1;jettySize=auto;html=1;exitX=0.5;exitY=1;exitDx=0;exitDy=0;entryX=1;entryY=0.25;entryDx=0;entryDy=0;strokeColor=#000000;fontSize=16;fontColor=#000000;labelBackgroundColor=none;" parent="JEjzlFw6t6a2NhCm18pd-1" source="nmRgIuXKoeiEjBjeD90D-2" target="U08PJLU9lS9YtC-txUqM-10" edge="1">
          <mxGeometry x="0.0022" relative="1" as="geometry">
            <mxPoint x="875" y="251" as="targetPoint" />
            <mxPoint as="offset" />
          </mxGeometry>
        </mxCell>
        <mxCell id="nmRgIuXKoeiEjBjeD90D-2" value="Authentication Service" style="rounded=1;whiteSpace=wrap;html=1;strokeColor=#000000;strokeWidth=2;fontSize=16;fontColor=#000000;fillColor=none;" parent="JEjzlFw6t6a2NhCm18pd-1" vertex="1">
          <mxGeometry x="791" y="181" width="169" height="27" as="geometry" />
        </mxCell>
        <mxCell id="Ptdj-PpZZd7gTvsX4c2O-0" value="Api Gateway/ Proxy Server" style="text;html=1;align=center;verticalAlign=middle;whiteSpace=wrap;rounded=0;" parent="JEjzlFw6t6a2NhCm18pd-1" vertex="1">
          <mxGeometry x="297" y="141" width="100" height="30" as="geometry" />
        </mxCell>
        <mxCell id="Ptdj-PpZZd7gTvsX4c2O-2" value="&lt;span style=&quot;font-size: 12px;&quot;&gt;Timeline Service/ User Feed Service&lt;/span&gt;" style="rounded=1;whiteSpace=wrap;html=1;strokeColor=#000000;strokeWidth=2;fontSize=16;fontColor=#000000;fillColor=none;" parent="JEjzlFw6t6a2NhCm18pd-1" vertex="1">
          <mxGeometry x="791" y="110" width="110" height="50" as="geometry" />
        </mxCell>
        <mxCell id="q34Sy39tsFJGS8U8P3e1-1" value="Follower 1&lt;div&gt;Queue&lt;/div&gt;" style="verticalLabelPosition=bottom;html=1;verticalAlign=top;align=center;strokeColor=none;fillColor=#00BEF2;shape=mxgraph.azure.queue_generic;pointerEvents=1;labelBackgroundColor=#FFFFFF;strokeWidth=2;fontSize=12;fontColor=#000000;" parent="JEjzlFw6t6a2NhCm18pd-1" vertex="1">
          <mxGeometry x="1020" y="120" width="87" height="30" as="geometry" />
        </mxCell>
        <mxCell id="q34Sy39tsFJGS8U8P3e1-3" style="edgeStyle=orthogonalEdgeStyle;rounded=0;orthogonalLoop=1;jettySize=auto;html=1;exitX=1;exitY=0.25;exitDx=0;exitDy=0;entryX=0;entryY=0.5;entryDx=0;entryDy=0;entryPerimeter=0;" parent="JEjzlFw6t6a2NhCm18pd-1" source="Ptdj-PpZZd7gTvsX4c2O-2" target="q34Sy39tsFJGS8U8P3e1-1" edge="1">
          <mxGeometry relative="1" as="geometry" />
        </mxCell>
        <mxCell id="q34Sy39tsFJGS8U8P3e1-4" value="" style="rounded=0;whiteSpace=wrap;html=1;strokeColor=#000000;strokeWidth=2;fontSize=16;fontColor=#000000;fillColor=none;" parent="JEjzlFw6t6a2NhCm18pd-1" vertex="1">
          <mxGeometry x="1001" y="453" width="120" height="120" as="geometry" />
        </mxCell>
        <mxCell id="q34Sy39tsFJGS8U8P3e1-5" value="" style="verticalLabelPosition=bottom;html=1;verticalAlign=top;align=center;strokeColor=none;fillColor=#00BEF2;shape=mxgraph.azure.computer;pointerEvents=1;strokeWidth=2;fontSize=12;fontColor=#000000;" parent="JEjzlFw6t6a2NhCm18pd-1" vertex="1">
          <mxGeometry x="1061" y="517" width="50" height="45" as="geometry" />
        </mxCell>
        <mxCell id="q34Sy39tsFJGS8U8P3e1-6" value="" style="outlineConnect=0;dashed=0;verticalLabelPosition=bottom;verticalAlign=top;align=center;html=1;shape=mxgraph.aws3.mobile_client;fillColor=#000000;gradientColor=none;strokeColor=#000000;strokeWidth=2;fontSize=12;fontColor=#000000;" parent="JEjzlFw6t6a2NhCm18pd-1" vertex="1">
          <mxGeometry x="1075" y="459" width="30" height="50" as="geometry" />
        </mxCell>
        <mxCell id="q34Sy39tsFJGS8U8P3e1-7" value="Influencer" style="shape=umlActor;verticalLabelPosition=bottom;verticalAlign=top;html=1;outlineConnect=0;strokeColor=#000000;strokeWidth=2;fontSize=12;fontColor=#000000;fillColor=#000000;" parent="JEjzlFw6t6a2NhCm18pd-1" vertex="1">
          <mxGeometry x="1017" y="473" width="30" height="60" as="geometry" />
        </mxCell>
        <mxCell id="q34Sy39tsFJGS8U8P3e1-8" style="edgeStyle=orthogonalEdgeStyle;rounded=0;orthogonalLoop=1;jettySize=auto;html=1;exitX=0.5;exitY=0;exitDx=0;exitDy=0;entryX=0.206;entryY=1.008;entryDx=0;entryDy=0;entryPerimeter=0;" parent="JEjzlFw6t6a2NhCm18pd-1" edge="1">
          <mxGeometry relative="1" as="geometry">
            <mxPoint x="1054" y="453" as="sourcePoint" />
            <mxPoint x="1030.922" y="150.2399999999999" as="targetPoint" />
            <Array as="points">
              <mxPoint x="1031" y="453" />
            </Array>
          </mxGeometry>
        </mxCell>
        <mxCell id="q34Sy39tsFJGS8U8P3e1-11" value="Follower 2 queue" style="verticalLabelPosition=bottom;html=1;verticalAlign=top;align=center;strokeColor=none;fillColor=#00BEF2;shape=mxgraph.azure.queue_generic;pointerEvents=1;labelBackgroundColor=#FFFFFF;strokeWidth=2;fontSize=12;fontColor=#000000;" parent="JEjzlFw6t6a2NhCm18pd-1" vertex="1">
          <mxGeometry x="1070" y="226" width="87" height="30" as="geometry" />
        </mxCell>
        <mxCell id="q34Sy39tsFJGS8U8P3e1-12" value="Follower n&lt;div&gt;queue&lt;/div&gt;" style="verticalLabelPosition=bottom;html=1;verticalAlign=top;align=center;strokeColor=none;fillColor=#00BEF2;shape=mxgraph.azure.queue_generic;pointerEvents=1;labelBackgroundColor=#FFFFFF;strokeWidth=2;fontSize=12;fontColor=#000000;" parent="JEjzlFw6t6a2NhCm18pd-1" vertex="1">
          <mxGeometry x="1070" y="300" width="87" height="30" as="geometry" />
        </mxCell>
        <mxCell id="q34Sy39tsFJGS8U8P3e1-13" style="edgeStyle=orthogonalEdgeStyle;rounded=0;orthogonalLoop=1;jettySize=auto;html=1;exitX=0.5;exitY=0;exitDx=0;exitDy=0;entryX=0;entryY=0.5;entryDx=0;entryDy=0;entryPerimeter=0;" parent="JEjzlFw6t6a2NhCm18pd-1" source="q34Sy39tsFJGS8U8P3e1-4" target="q34Sy39tsFJGS8U8P3e1-11" edge="1">
          <mxGeometry relative="1" as="geometry" />
        </mxCell>
        <mxCell id="q34Sy39tsFJGS8U8P3e1-14" style="edgeStyle=orthogonalEdgeStyle;rounded=0;orthogonalLoop=1;jettySize=auto;html=1;exitX=0.75;exitY=0;exitDx=0;exitDy=0;entryX=0.183;entryY=1.125;entryDx=0;entryDy=0;entryPerimeter=0;" parent="JEjzlFw6t6a2NhCm18pd-1" edge="1">
          <mxGeometry relative="1" as="geometry">
            <mxPoint x="1085" y="453" as="sourcePoint" />
            <mxPoint x="1079.9210000000003" y="333.75" as="targetPoint" />
            <Array as="points">
              <mxPoint x="1080" y="454" />
            </Array>
          </mxGeometry>
        </mxCell>
        <mxCell id="g-1_oXNIEIHAk3i7fql3-0" value="Notification Service" style="rounded=1;whiteSpace=wrap;html=1;strokeColor=#000000;strokeWidth=2;fontSize=16;fontColor=#000000;fillColor=none;" parent="JEjzlFw6t6a2NhCm18pd-1" vertex="1">
          <mxGeometry x="610" y="339" width="150" height="27" as="geometry" />
        </mxCell>
        <mxCell id="g-1_oXNIEIHAk3i7fql3-1" value="Normal&lt;div&gt;User&lt;/div&gt;" style="shape=umlActor;verticalLabelPosition=bottom;verticalAlign=top;html=1;outlineConnect=0;strokeColor=#000000;strokeWidth=2;fontSize=12;fontColor=#000000;fillColor=#000000;" parent="JEjzlFw6t6a2NhCm18pd-1" vertex="1">
          <mxGeometry x="723" y="473" width="30" height="60" as="geometry" />
        </mxCell>
        <mxCell id="g-1_oXNIEIHAk3i7fql3-2" style="edgeStyle=orthogonalEdgeStyle;rounded=0;orthogonalLoop=1;jettySize=auto;html=1;exitX=0.5;exitY=0;exitDx=0;exitDy=0;exitPerimeter=0;entryX=0.25;entryY=1;entryDx=0;entryDy=0;" parent="JEjzlFw6t6a2NhCm18pd-1" source="g-1_oXNIEIHAk3i7fql3-1" edge="1">
          <mxGeometry relative="1" as="geometry">
            <mxPoint x="738.5" y="366" as="targetPoint" />
          </mxGeometry>
        </mxCell>
        <mxCell id="g-1_oXNIEIHAk3i7fql3-3" style="edgeStyle=orthogonalEdgeStyle;rounded=0;orthogonalLoop=1;jettySize=auto;html=1;exitX=0.25;exitY=0;exitDx=0;exitDy=0;" parent="JEjzlFw6t6a2NhCm18pd-1" target="U08PJLU9lS9YtC-txUqM-10" edge="1">
          <mxGeometry relative="1" as="geometry">
            <mxPoint x="742.5" y="339" as="sourcePoint" />
            <mxPoint x="540" y="297.0400000000001" as="targetPoint" />
            <Array as="points">
              <mxPoint x="680" y="339" />
              <mxPoint x="680" y="297" />
            </Array>
          </mxGeometry>
        </mxCell>
        <mxCell id="g-1_oXNIEIHAk3i7fql3-4" value="Push Model" style="edgeLabel;html=1;align=center;verticalAlign=middle;resizable=0;points=[];" parent="g-1_oXNIEIHAk3i7fql3-3" vertex="1" connectable="0">
          <mxGeometry x="-0.0551" y="-1" relative="1" as="geometry">
            <mxPoint as="offset" />
          </mxGeometry>
        </mxCell>
        <mxCell id="g-1_oXNIEIHAk3i7fql3-6" style="edgeStyle=orthogonalEdgeStyle;rounded=0;orthogonalLoop=1;jettySize=auto;html=1;exitX=0.5;exitY=0;exitDx=0;exitDy=0;exitPerimeter=0;entryX=0.25;entryY=1;entryDx=0;entryDy=0;" parent="JEjzlFw6t6a2NhCm18pd-1" source="g-1_oXNIEIHAk3i7fql3-5" target="g-1_oXNIEIHAk3i7fql3-0" edge="1">
          <mxGeometry relative="1" as="geometry" />
        </mxCell>
        <mxCell id="g-1_oXNIEIHAk3i7fql3-7" value="Batch (send notifications&lt;div&gt;in batches (say batch of&amp;nbsp;&lt;/div&gt;&lt;div&gt;1000 to followers)&lt;/div&gt;" style="edgeLabel;html=1;align=center;verticalAlign=middle;resizable=0;points=[];" parent="g-1_oXNIEIHAk3i7fql3-6" vertex="1" connectable="0">
          <mxGeometry x="0.2297" y="1" relative="1" as="geometry">
            <mxPoint as="offset" />
          </mxGeometry>
        </mxCell>
        <mxCell id="g-1_oXNIEIHAk3i7fql3-5" value="Celebrity&lt;div&gt;&lt;span style=&quot;background-color: initial;&quot;&gt;With Large No.&lt;/span&gt;&lt;div&gt;of Followers&lt;/div&gt;&lt;/div&gt;" style="shape=umlActor;verticalLabelPosition=bottom;verticalAlign=top;html=1;outlineConnect=0;" parent="JEjzlFw6t6a2NhCm18pd-1" vertex="1">
          <mxGeometry x="632" y="470" width="30" height="60" as="geometry" />
        </mxCell>
        <mxCell id="g-1_oXNIEIHAk3i7fql3-8" style="edgeStyle=orthogonalEdgeStyle;rounded=0;orthogonalLoop=1;jettySize=auto;html=1;entryX=0.995;entryY=0.952;entryDx=0;entryDy=0;entryPerimeter=0;exitX=0.995;exitY=0.952;exitDx=0;exitDy=0;exitPerimeter=0;" parent="JEjzlFw6t6a2NhCm18pd-1" source="U08PJLU9lS9YtC-txUqM-4" edge="1">
          <mxGeometry relative="1" as="geometry">
            <mxPoint x="630" y="500" as="targetPoint" />
            <Array as="points">
              <mxPoint x="470" y="359" />
              <mxPoint x="470" y="500" />
            </Array>
          </mxGeometry>
        </mxCell>
        <mxCell id="g-1_oXNIEIHAk3i7fql3-9" value="Pull Model&lt;div&gt;(Let user pull&lt;/div&gt;&lt;div&gt;notification as&lt;/div&gt;&lt;div&gt;he comes online)&lt;/div&gt;" style="edgeLabel;html=1;align=center;verticalAlign=middle;resizable=0;points=[];" parent="g-1_oXNIEIHAk3i7fql3-8" vertex="1" connectable="0">
          <mxGeometry x="0.597" relative="1" as="geometry">
            <mxPoint x="-1" as="offset" />
          </mxGeometry>
        </mxCell>
        <mxCell id="Rvosb_dNKXYOBjgcmlmi-0" value="Image Service" style="rounded=1;whiteSpace=wrap;html=1;strokeColor=#000000;strokeWidth=2;fontSize=16;fontColor=#000000;fillColor=none;" parent="JEjzlFw6t6a2NhCm18pd-1" vertex="1">
          <mxGeometry x="791" y="259" width="169" height="27" as="geometry" />
        </mxCell>
        <mxCell id="Rvosb_dNKXYOBjgcmlmi-1" style="edgeStyle=orthogonalEdgeStyle;rounded=0;orthogonalLoop=1;jettySize=auto;html=1;exitX=0;exitY=0.5;exitDx=0;exitDy=0;entryX=1.004;entryY=0.591;entryDx=0;entryDy=0;entryPerimeter=0;" parent="JEjzlFw6t6a2NhCm18pd-1" source="Rvosb_dNKXYOBjgcmlmi-0" target="U08PJLU9lS9YtC-txUqM-10" edge="1">
          <mxGeometry relative="1" as="geometry" />
        </mxCell>
        <mxCell id="Rvosb_dNKXYOBjgcmlmi-2" value="CDN" style="image;aspect=fixed;html=1;points=[];align=center;fontSize=12;image=img/lib/azure2/app_services/CDN_Profiles.svg;" parent="JEjzlFw6t6a2NhCm18pd-1" vertex="1">
          <mxGeometry x="841" y="417.71" width="60" height="35.29" as="geometry" />
        </mxCell>
        <mxCell id="Rvosb_dNKXYOBjgcmlmi-3" style="edgeStyle=orthogonalEdgeStyle;rounded=0;orthogonalLoop=1;jettySize=auto;html=1;exitX=0.583;exitY=0.065;exitDx=0;exitDy=0;entryX=0.5;entryY=1;entryDx=0;entryDy=0;exitPerimeter=0;" parent="JEjzlFw6t6a2NhCm18pd-1" source="Rvosb_dNKXYOBjgcmlmi-2" target="Rvosb_dNKXYOBjgcmlmi-0" edge="1">
          <mxGeometry relative="1" as="geometry" />
        </mxCell>
      </root>
    </mxGraphModel>
  </diagram>
  <diagram name="Payment System" id="29f83Dw4KWG9CjSCKLAw">
    <mxGraphModel dx="1050" dy="522" grid="1" gridSize="10" guides="1" tooltips="1" connect="1" arrows="1" fold="1" page="1" pageScale="1" pageWidth="1169" pageHeight="827" math="0" shadow="0">
      <root>
        <mxCell id="0" />
        <mxCell id="1" parent="0" />
        <mxCell id="bMlD8K3QHufmYSERv4Qj-1" value="" style="rounded=0;whiteSpace=wrap;html=1;fillColor=#eeeeee;strokeColor=#36393d;" vertex="1" parent="1">
          <mxGeometry x="6" y="3" width="1160" height="820" as="geometry" />
        </mxCell>
      </root>
    </mxGraphModel>
  </diagram>
  <diagram name="TinyUrl" id="IQjIUDtfmeUDhUEFHF92">
    <mxGraphModel dx="1050" dy="522" grid="1" gridSize="10" guides="1" tooltips="1" connect="1" arrows="1" fold="1" page="1" pageScale="1" pageWidth="1169" pageHeight="827" math="0" shadow="0">
      <root>
        <mxCell id="0" />
        <mxCell id="1" parent="0" />
        <mxCell id="tURa_n9fQMbtOaTJwWiR-3" value="" style="rounded=0;whiteSpace=wrap;html=1;strokeColor=#000000;strokeWidth=2;fontSize=16;fontColor=#000000;fillColor=none;" parent="1" vertex="1">
          <mxGeometry x="150" y="225" width="110" height="120" as="geometry" />
        </mxCell>
        <mxCell id="tURa_n9fQMbtOaTJwWiR-5" value="" style="verticalLabelPosition=bottom;html=1;verticalAlign=top;align=center;strokeColor=none;fillColor=#00BEF2;shape=mxgraph.azure.computer;pointerEvents=1;strokeWidth=2;fontSize=12;fontColor=#000000;" parent="1" vertex="1">
          <mxGeometry x="200" y="289" width="50" height="45" as="geometry" />
        </mxCell>
        <mxCell id="tURa_n9fQMbtOaTJwWiR-6" value="" style="outlineConnect=0;dashed=0;verticalLabelPosition=bottom;verticalAlign=top;align=center;html=1;shape=mxgraph.aws3.mobile_client;fillColor=#000000;gradientColor=none;strokeColor=#000000;strokeWidth=2;fontSize=12;fontColor=#000000;" parent="1" vertex="1">
          <mxGeometry x="214" y="231" width="30" height="50" as="geometry" />
        </mxCell>
        <mxCell id="tURa_n9fQMbtOaTJwWiR-7" value="Client" style="shape=umlActor;verticalLabelPosition=bottom;verticalAlign=top;html=1;outlineConnect=0;strokeColor=#000000;strokeWidth=2;fontSize=12;fontColor=#000000;fillColor=#000000;" parent="1" vertex="1">
          <mxGeometry x="160" y="245" width="30" height="60" as="geometry" />
        </mxCell>
        <mxCell id="tURa_n9fQMbtOaTJwWiR-20" style="edgeStyle=orthogonalEdgeStyle;rounded=0;orthogonalLoop=1;jettySize=auto;html=1;exitX=1;exitY=0.5;exitDx=0;exitDy=0;exitPerimeter=0;entryX=0;entryY=0.5;entryDx=0;entryDy=0;" parent="1" source="tURa_n9fQMbtOaTJwWiR-12" target="tURa_n9fQMbtOaTJwWiR-17" edge="1">
          <mxGeometry relative="1" as="geometry" />
        </mxCell>
        <mxCell id="tURa_n9fQMbtOaTJwWiR-12" value="" style="outlineConnect=0;dashed=0;verticalLabelPosition=bottom;verticalAlign=top;align=center;html=1;shape=mxgraph.aws3.classic_load_balancer;fillColor=#F58534;gradientColor=none;" parent="1" vertex="1">
          <mxGeometry x="421" y="219" width="69" height="72" as="geometry" />
        </mxCell>
        <mxCell id="tURa_n9fQMbtOaTJwWiR-14" style="edgeStyle=orthogonalEdgeStyle;rounded=0;orthogonalLoop=1;jettySize=auto;html=1;exitX=1;exitY=0.25;exitDx=0;exitDy=0;entryX=0;entryY=0.5;entryDx=0;entryDy=0;entryPerimeter=0;" parent="1" source="tURa_n9fQMbtOaTJwWiR-3" target="tURa_n9fQMbtOaTJwWiR-12" edge="1">
          <mxGeometry relative="1" as="geometry" />
        </mxCell>
        <mxCell id="tURa_n9fQMbtOaTJwWiR-15" value="Post (/create)" style="text;html=1;align=center;verticalAlign=middle;resizable=0;points=[];autosize=1;strokeColor=none;fillColor=none;" parent="1" vertex="1">
          <mxGeometry x="280" y="218" width="100" height="30" as="geometry" />
        </mxCell>
        <mxCell id="tURa_n9fQMbtOaTJwWiR-16" value="" style="rounded=0;whiteSpace=wrap;html=1;" parent="1" vertex="1">
          <mxGeometry x="630" y="181.5" width="80" height="288.5" as="geometry" />
        </mxCell>
        <mxCell id="tURa_n9fQMbtOaTJwWiR-22" style="edgeStyle=orthogonalEdgeStyle;rounded=0;orthogonalLoop=1;jettySize=auto;html=1;exitX=1;exitY=0.5;exitDx=0;exitDy=0;entryX=0;entryY=0.5;entryDx=0;entryDy=0;" parent="1" source="tURa_n9fQMbtOaTJwWiR-17" target="tURa_n9fQMbtOaTJwWiR-21" edge="1">
          <mxGeometry relative="1" as="geometry" />
        </mxCell>
        <mxCell id="tURa_n9fQMbtOaTJwWiR-17" value="Server 1" style="image;html=1;image=img/lib/clip_art/computers/Server_Tower_128x128.png" parent="1" vertex="1">
          <mxGeometry x="640" y="193" width="50" height="57" as="geometry" />
        </mxCell>
        <mxCell id="tURa_n9fQMbtOaTJwWiR-18" value="Server 2&lt;div&gt;........&lt;/div&gt;" style="image;html=1;image=img/lib/clip_art/computers/Server_Tower_128x128.png" parent="1" vertex="1">
          <mxGeometry x="644" y="282" width="50" height="57" as="geometry" />
        </mxCell>
        <mxCell id="tURa_n9fQMbtOaTJwWiR-19" value="Server n" style="image;html=1;image=img/lib/clip_art/computers/Server_Tower_128x128.png" parent="1" vertex="1">
          <mxGeometry x="644" y="385" width="50" height="57" as="geometry" />
        </mxCell>
        <mxCell id="tURa_n9fQMbtOaTJwWiR-21" value="Key Generation Service" style="rounded=1;whiteSpace=wrap;html=1;" parent="1" vertex="1">
          <mxGeometry x="810" y="221" width="120" height="60" as="geometry" />
        </mxCell>
        <mxCell id="tURa_n9fQMbtOaTJwWiR-23" value="Key-Value&lt;div&gt;DB&lt;/div&gt;" style="shape=cylinder3;whiteSpace=wrap;html=1;boundedLbl=1;backgroundOutline=1;size=15;" parent="1" vertex="1">
          <mxGeometry x="1040" y="199" width="60" height="80" as="geometry" />
        </mxCell>
        <mxCell id="tURa_n9fQMbtOaTJwWiR-24" style="edgeStyle=orthogonalEdgeStyle;rounded=0;orthogonalLoop=1;jettySize=auto;html=1;exitX=1;exitY=0.5;exitDx=0;exitDy=0;entryX=0;entryY=0;entryDx=0;entryDy=52.5;entryPerimeter=0;endArrow=classic;startArrow=classic" parent="1" source="tURa_n9fQMbtOaTJwWiR-21" target="tURa_n9fQMbtOaTJwWiR-23" edge="1">
          <mxGeometry relative="1" as="geometry" />
        </mxCell>
        <mxCell id="tURa_n9fQMbtOaTJwWiR-25" value="Clean up Service" style="rounded=1;whiteSpace=wrap;html=1;" parent="1" vertex="1">
          <mxGeometry x="1005" y="390" width="130" height="30" as="geometry" />
        </mxCell>
        <mxCell id="tURa_n9fQMbtOaTJwWiR-28" style="edgeStyle=orthogonalEdgeStyle;rounded=0;orthogonalLoop=1;jettySize=auto;html=1;exitX=0.5;exitY=0;exitDx=0;exitDy=0;entryX=0.5;entryY=1;entryDx=0;entryDy=0;entryPerimeter=0;" parent="1" source="tURa_n9fQMbtOaTJwWiR-25" target="tURa_n9fQMbtOaTJwWiR-23" edge="1">
          <mxGeometry relative="1" as="geometry" />
        </mxCell>
      </root>
    </mxGraphModel>
  </diagram>
  <diagram name="Youtube" id="_bu0UIfpUXFX2Aolka1e">
    <mxGraphModel dx="1050" dy="522" grid="1" gridSize="10" guides="1" tooltips="1" connect="1" arrows="1" fold="1" page="1" pageScale="1" pageWidth="1169" pageHeight="827" math="0" shadow="0">
      <root>
        <mxCell id="0" />
        <mxCell id="1" parent="0" />
        <mxCell id="GCA7KdadlOXPOmH-Dwuj-1" value="" style="rounded=0;whiteSpace=wrap;html=1;fillColor=#eeeeee;strokeColor=#36393d;" parent="1" vertex="1">
          <mxGeometry x="6" y="3" width="1160" height="820" as="geometry" />
        </mxCell>
        <mxCell id="pbMLyX-JwEX--z3Dh3OP-1" value="" style="rounded=0;whiteSpace=wrap;html=1;strokeColor=#000000;strokeWidth=2;fontSize=16;fontColor=#000000;fillColor=none;" parent="1" vertex="1">
          <mxGeometry x="150" y="200" width="110" height="160" as="geometry" />
        </mxCell>
        <mxCell id="pbMLyX-JwEX--z3Dh3OP-2" value="" style="verticalLabelPosition=bottom;html=1;verticalAlign=top;align=center;strokeColor=none;fillColor=#00BEF2;shape=mxgraph.azure.computer;pointerEvents=1;strokeWidth=2;fontSize=12;fontColor=#000000;" parent="1" vertex="1">
          <mxGeometry x="200" y="264" width="50" height="45" as="geometry" />
        </mxCell>
        <mxCell id="pbMLyX-JwEX--z3Dh3OP-3" value="" style="outlineConnect=0;dashed=0;verticalLabelPosition=bottom;verticalAlign=top;align=center;html=1;shape=mxgraph.aws3.mobile_client;fillColor=#000000;gradientColor=none;strokeColor=#000000;strokeWidth=2;fontSize=12;fontColor=#000000;" parent="1" vertex="1">
          <mxGeometry x="214" y="206" width="30" height="50" as="geometry" />
        </mxCell>
        <mxCell id="pbMLyX-JwEX--z3Dh3OP-4" value="User" style="shape=umlActor;verticalLabelPosition=bottom;verticalAlign=top;html=1;outlineConnect=0;strokeColor=#000000;strokeWidth=2;fontSize=12;fontColor=#000000;fillColor=#000000;" parent="1" vertex="1">
          <mxGeometry x="160" y="220" width="30" height="60" as="geometry" />
        </mxCell>
        <mxCell id="pbMLyX-JwEX--z3Dh3OP-6" value="" style="sketch=0;outlineConnect=0;fontColor=#232F3E;gradientColor=none;fillColor=#7AA116;strokeColor=none;dashed=0;verticalLabelPosition=bottom;verticalAlign=top;align=center;html=1;fontSize=12;fontStyle=0;aspect=fixed;pointerEvents=1;shape=mxgraph.aws4.firetv;" parent="1" vertex="1">
          <mxGeometry x="196.26999999999998" y="315" width="56.73" height="40" as="geometry" />
        </mxCell>
        <mxCell id="DBjggpfIbadJkz665lRF-4" style="edgeStyle=orthogonalEdgeStyle;rounded=0;orthogonalLoop=1;jettySize=auto;html=1;exitX=1;exitY=0.5;exitDx=0;exitDy=0;exitPerimeter=0;entryX=0;entryY=0.5;entryDx=0;entryDy=0;" parent="1" source="pbMLyX-JwEX--z3Dh3OP-7" target="pbMLyX-JwEX--z3Dh3OP-9" edge="1">
          <mxGeometry relative="1" as="geometry" />
        </mxCell>
        <mxCell id="se9uRJ2yIyLhXa1p1XfT-4" value="2" style="edgeLabel;html=1;align=center;verticalAlign=middle;resizable=0;points=[];" vertex="1" connectable="0" parent="DBjggpfIbadJkz665lRF-4">
          <mxGeometry x="0.344" y="-1" relative="1" as="geometry">
            <mxPoint as="offset" />
          </mxGeometry>
        </mxCell>
        <mxCell id="pbMLyX-JwEX--z3Dh3OP-7" value="Original Storage BLOB" style="shape=cylinder3;whiteSpace=wrap;html=1;boundedLbl=1;backgroundOutline=1;size=15;" parent="1" vertex="1">
          <mxGeometry x="500" y="126" width="60" height="80" as="geometry" />
        </mxCell>
        <mxCell id="pbMLyX-JwEX--z3Dh3OP-8" style="edgeStyle=orthogonalEdgeStyle;rounded=0;orthogonalLoop=1;jettySize=auto;html=1;exitX=1;exitY=0.5;exitDx=0;exitDy=0;entryX=0;entryY=0.5;entryDx=0;entryDy=0;entryPerimeter=0;" parent="1" source="pbMLyX-JwEX--z3Dh3OP-1" target="pbMLyX-JwEX--z3Dh3OP-7" edge="1">
          <mxGeometry relative="1" as="geometry" />
        </mxCell>
        <mxCell id="se9uRJ2yIyLhXa1p1XfT-2" value="Video upload Flow" style="edgeLabel;html=1;align=center;verticalAlign=middle;resizable=0;points=[];" vertex="1" connectable="0" parent="pbMLyX-JwEX--z3Dh3OP-8">
          <mxGeometry x="-0.6678" y="1" relative="1" as="geometry">
            <mxPoint as="offset" />
          </mxGeometry>
        </mxCell>
        <mxCell id="se9uRJ2yIyLhXa1p1XfT-3" value="1" style="edgeLabel;html=1;align=center;verticalAlign=middle;resizable=0;points=[];" vertex="1" connectable="0" parent="pbMLyX-JwEX--z3Dh3OP-8">
          <mxGeometry x="0.0689" y="1" relative="1" as="geometry">
            <mxPoint as="offset" />
          </mxGeometry>
        </mxCell>
        <mxCell id="pbMLyX-JwEX--z3Dh3OP-9" value="Transcoding Servers&lt;div&gt;&lt;br&gt;&lt;/div&gt;" style="shape=process;whiteSpace=wrap;html=1;backgroundOutline=1;fillColor=#FFFFFF;labelPosition=center;verticalLabelPosition=bottom;align=center;verticalAlign=top;" parent="1" vertex="1">
          <mxGeometry x="700" y="126" width="120" height="60" as="geometry" />
        </mxCell>
        <mxCell id="DBjggpfIbadJkz665lRF-1" value="" style="image;html=1;image=img/lib/clip_art/computers/Server_Tower_128x128.png;strokeColor=#000000;strokeWidth=2;fontSize=12;fontColor=#000000;fillColor=#FFFFFF;" parent="1" vertex="1">
          <mxGeometry x="710" y="138" width="45" height="36" as="geometry" />
        </mxCell>
        <mxCell id="DBjggpfIbadJkz665lRF-2" value="" style="image;html=1;image=img/lib/clip_art/computers/Server_Tower_128x128.png;strokeColor=#000000;strokeWidth=2;fontSize=12;fontColor=#000000;fillColor=#FFFFFF;" parent="1" vertex="1">
          <mxGeometry x="739" y="140" width="45" height="36" as="geometry" />
        </mxCell>
        <mxCell id="DBjggpfIbadJkz665lRF-3" value="" style="image;html=1;image=img/lib/clip_art/computers/Server_Tower_128x128.png;strokeColor=#000000;strokeWidth=2;fontSize=12;fontColor=#000000;fillColor=#FFFFFF;" parent="1" vertex="1">
          <mxGeometry x="768" y="141" width="45" height="36" as="geometry" />
        </mxCell>
        <mxCell id="DBjggpfIbadJkz665lRF-8" style="edgeStyle=orthogonalEdgeStyle;rounded=0;orthogonalLoop=1;jettySize=auto;html=1;exitX=1;exitY=0.5;exitDx=0;exitDy=0;exitPerimeter=0;" parent="1" source="DBjggpfIbadJkz665lRF-5" target="DBjggpfIbadJkz665lRF-7" edge="1">
          <mxGeometry relative="1" as="geometry" />
        </mxCell>
        <mxCell id="se9uRJ2yIyLhXa1p1XfT-6" value="3a1" style="edgeLabel;html=1;align=center;verticalAlign=middle;resizable=0;points=[];" vertex="1" connectable="0" parent="DBjggpfIbadJkz665lRF-8">
          <mxGeometry x="0.2186" y="-3" relative="1" as="geometry">
            <mxPoint as="offset" />
          </mxGeometry>
        </mxCell>
        <mxCell id="DBjggpfIbadJkz665lRF-5" value="Transcoded Storage" style="shape=cylinder3;whiteSpace=wrap;html=1;boundedLbl=1;backgroundOutline=1;size=15;" parent="1" vertex="1">
          <mxGeometry x="914" y="116" width="70" height="80" as="geometry" />
        </mxCell>
        <mxCell id="DBjggpfIbadJkz665lRF-6" style="edgeStyle=orthogonalEdgeStyle;rounded=0;orthogonalLoop=1;jettySize=auto;html=1;exitX=1;exitY=0.5;exitDx=0;exitDy=0;entryX=0;entryY=0.5;entryDx=0;entryDy=0;entryPerimeter=0;" parent="1" source="pbMLyX-JwEX--z3Dh3OP-9" target="DBjggpfIbadJkz665lRF-5" edge="1">
          <mxGeometry relative="1" as="geometry" />
        </mxCell>
        <mxCell id="se9uRJ2yIyLhXa1p1XfT-5" value="3a" style="edgeLabel;html=1;align=center;verticalAlign=middle;resizable=0;points=[];" vertex="1" connectable="0" parent="DBjggpfIbadJkz665lRF-6">
          <mxGeometry x="-0.2255" y="-3" relative="1" as="geometry">
            <mxPoint as="offset" />
          </mxGeometry>
        </mxCell>
        <mxCell id="DBjggpfIbadJkz665lRF-7" value="CDN" style="image;aspect=fixed;html=1;points=[];align=center;fontSize=12;image=img/lib/azure2/app_services/CDN_Profiles.svg;" parent="1" vertex="1">
          <mxGeometry x="1070" y="136" width="68" height="40" as="geometry" />
        </mxCell>
        <mxCell id="BvUEJH1B-gipkZiDQG5U-6" style="edgeStyle=orthogonalEdgeStyle;rounded=0;orthogonalLoop=1;jettySize=auto;html=1;exitX=1;exitY=0.51;exitDx=0;exitDy=0;exitPerimeter=0;entryX=0;entryY=0.5;entryDx=0;entryDy=0;" parent="1" source="BvUEJH1B-gipkZiDQG5U-1" target="BvUEJH1B-gipkZiDQG5U-3" edge="1">
          <mxGeometry relative="1" as="geometry" />
        </mxCell>
        <mxCell id="se9uRJ2yIyLhXa1p1XfT-8" value="3b1" style="edgeLabel;html=1;align=center;verticalAlign=middle;resizable=0;points=[];" vertex="1" connectable="0" parent="BvUEJH1B-gipkZiDQG5U-6">
          <mxGeometry x="-0.1724" y="1" relative="1" as="geometry">
            <mxPoint as="offset" />
          </mxGeometry>
        </mxCell>
        <mxCell id="BvUEJH1B-gipkZiDQG5U-1" value="Completion Queue" style="verticalLabelPosition=bottom;html=1;verticalAlign=top;align=center;strokeColor=none;fillColor=#00BEF2;shape=mxgraph.azure.queue_generic;pointerEvents=1;labelBackgroundColor=#FFFFFF;strokeWidth=2;fontSize=12;fontColor=#000000;" parent="1" vertex="1">
          <mxGeometry x="784" y="300" width="87" height="30" as="geometry" />
        </mxCell>
        <mxCell id="BvUEJH1B-gipkZiDQG5U-2" style="edgeStyle=orthogonalEdgeStyle;rounded=0;orthogonalLoop=1;jettySize=auto;html=1;exitX=0.5;exitY=1;exitDx=0;exitDy=0;entryX=0;entryY=0.5;entryDx=0;entryDy=0;entryPerimeter=0;" parent="1" source="pbMLyX-JwEX--z3Dh3OP-9" target="BvUEJH1B-gipkZiDQG5U-1" edge="1">
          <mxGeometry relative="1" as="geometry" />
        </mxCell>
        <mxCell id="se9uRJ2yIyLhXa1p1XfT-7" value="3b" style="edgeLabel;html=1;align=center;verticalAlign=middle;resizable=0;points=[];" vertex="1" connectable="0" parent="BvUEJH1B-gipkZiDQG5U-2">
          <mxGeometry x="-0.0876" relative="1" as="geometry">
            <mxPoint as="offset" />
          </mxGeometry>
        </mxCell>
        <mxCell id="BvUEJH1B-gipkZiDQG5U-7" style="edgeStyle=orthogonalEdgeStyle;rounded=0;orthogonalLoop=1;jettySize=auto;html=1;exitX=1;exitY=0.25;exitDx=0;exitDy=0;entryX=0;entryY=0.5;entryDx=0;entryDy=0;" parent="1" source="BvUEJH1B-gipkZiDQG5U-3" target="BvUEJH1B-gipkZiDQG5U-4" edge="1">
          <mxGeometry relative="1" as="geometry" />
        </mxCell>
        <mxCell id="se9uRJ2yIyLhXa1p1XfT-11" value="3b1a" style="edgeLabel;html=1;align=center;verticalAlign=middle;resizable=0;points=[];" vertex="1" connectable="0" parent="BvUEJH1B-gipkZiDQG5U-7">
          <mxGeometry x="-0.0776" relative="1" as="geometry">
            <mxPoint as="offset" />
          </mxGeometry>
        </mxCell>
        <mxCell id="BvUEJH1B-gipkZiDQG5U-8" style="edgeStyle=orthogonalEdgeStyle;rounded=0;orthogonalLoop=1;jettySize=auto;html=1;exitX=1;exitY=0.75;exitDx=0;exitDy=0;entryX=0;entryY=0.5;entryDx=0;entryDy=0;" parent="1" source="BvUEJH1B-gipkZiDQG5U-3" target="BvUEJH1B-gipkZiDQG5U-5" edge="1">
          <mxGeometry relative="1" as="geometry" />
        </mxCell>
        <mxCell id="se9uRJ2yIyLhXa1p1XfT-10" value="3b1b" style="edgeLabel;html=1;align=center;verticalAlign=middle;resizable=0;points=[];" vertex="1" connectable="0" parent="BvUEJH1B-gipkZiDQG5U-8">
          <mxGeometry x="-0.0913" y="-1" relative="1" as="geometry">
            <mxPoint as="offset" />
          </mxGeometry>
        </mxCell>
        <mxCell id="BvUEJH1B-gipkZiDQG5U-3" value="Completion Handler" style="rounded=1;whiteSpace=wrap;html=1;" parent="1" vertex="1">
          <mxGeometry x="920" y="285" width="76" height="60" as="geometry" />
        </mxCell>
        <mxCell id="BvUEJH1B-gipkZiDQG5U-4" value="Metadata Database" style="rounded=1;whiteSpace=wrap;html=1;" parent="1" vertex="1">
          <mxGeometry x="1050" y="226" width="80" height="60" as="geometry" />
        </mxCell>
        <mxCell id="BvUEJH1B-gipkZiDQG5U-5" value="Metadata Cache" style="rounded=1;whiteSpace=wrap;html=1;" parent="1" vertex="1">
          <mxGeometry x="1058" y="330" width="80" height="60" as="geometry" />
        </mxCell>
        <mxCell id="xI7K8O2-MdidfLiWX4An-1" value="&lt;font style=&quot;font-size: 18px;&quot;&gt;YouTube&lt;/font&gt;" style="rounded=0;whiteSpace=wrap;html=1;fillColor=none;strokeWidth=2;strokeColor=#000000;" parent="1" vertex="1">
          <mxGeometry x="390" y="10" width="430" height="50" as="geometry" />
        </mxCell>
      </root>
    </mxGraphModel>
  </diagram>
</mxfile>
